<svg xmlns="http://www.w3.org/2000/svg" width="94" height="75" viewBox="0 0 94 75"><defs><linearGradient id="kgs1a" x1="47.13" x2="47.07" y1="74.97" y2=".56" gradientUnits="userSpaceOnUse"><stop offset="0" stop-color="#a9a9a9"/><stop offset="1" stop-color="#a9a9a9"/></linearGradient></defs><g><g><path d="M23.69 8.118C4.566 19.268 5.663 37.429 6.321 44.15c24.7-29.402 61.646-27.976 61.646-27.976S15.596 34.226.215 70.424C-1 73.285 5.914 77 7.492 73.622c4.71-10.068 11.273-17.617 11.273-17.617 9.683 3.62 26.434 7.864 38.306-.531C72.841 44.32 71.23 19.599 93.741 7.562 99 4.752 49.615-7 23.69 8.118z"/><path fill="url(#kgs1a)" d="M23.69 8.118C4.566 19.268 5.663 37.429 6.321 44.15c24.7-29.402 61.646-27.976 61.646-27.976S15.596 34.226.215 70.424C-1 73.285 5.914 77 7.492 73.622c4.71-10.068 11.273-17.617 11.273-17.617 9.683 3.62 26.434 7.864 38.306-.531C72.841 44.32 71.23 19.599 93.741 7.562 99 4.752 49.615-7 23.69 8.118z"/></g></g></svg>
